<svg width="12" height="24" viewBox="0 0 12 24" fill="none" xmlns="http://www.w3.org/2000/svg">
<path d="M12 1.49739C11.9996 1.89553 11.8393 2.27724 11.5541 2.55859L3.77966 10.2393C3.54434 10.4717 3.35767 10.7477 3.23032 11.0514C3.10296 11.3551 3.03741 11.6806 3.03741 12.0093C3.03741 12.3381 3.10296 12.6636 3.23032 12.9673C3.35767 13.271 3.54434 13.5469 3.77966 13.7793L11.544 21.455C11.8209 21.7383 11.9741 22.1176 11.9706 22.5113C11.9672 22.9051 11.8073 23.2817 11.5255 23.5602C11.2436 23.8386 10.8624 23.9965 10.4639 23.9999C10.0653 24.0034 9.68134 23.852 9.39466 23.5785L1.63033 15.9087C0.586338 14.8753 1.87381e-06 13.4749 2.00145e-06 12.0148C2.12909e-06 10.5548 0.586338 9.15434 1.63033 8.12091L9.4048 0.440189C9.61708 0.230333 9.88752 0.0873011 10.182 0.0291403C10.4765 -0.0290204 10.7818 0.00029744 11.0594 0.113394C11.337 0.22649 11.5745 0.418299 11.7419 0.664612C11.9093 0.910925 11.9991 1.20071 12 1.49739Z" fill="#637388"/>
</svg>
