<svg width="45" height="45" viewBox="0 0 45 45" fill="none" xmlns="http://www.w3.org/2000/svg">
<g clip-path="url(#clip0_469_4399)">
<path d="M29.7263 16.6012L23.8275 22.5L29.7263 28.3988C30.0919 28.7644 30.0919 29.3588 29.7263 29.7244C29.5425 29.9081 29.3025 29.9981 29.0625 29.9981C28.8225 29.9981 28.5825 29.9063 28.3988 29.7244L22.5 23.8256L16.6012 29.7244C16.4175 29.9081 16.1775 29.9981 15.9375 29.9981C15.6975 29.9981 15.4575 29.9063 15.2737 29.7244C14.9081 29.3588 14.9081 28.7644 15.2737 28.3988L21.1725 22.5L15.2737 16.6012C14.9081 16.2356 14.9081 15.6413 15.2737 15.2756C15.6394 14.91 16.2337 14.91 16.5994 15.2756L22.4981 21.1744L28.3969 15.2756C28.7625 14.91 29.3569 14.91 29.7225 15.2756C30.0881 15.6413 30.0881 16.2356 29.7225 16.6012H29.7263ZM45 22.5C45 34.9069 34.9069 45 22.5 45C10.0931 45 0 34.9069 0 22.5C0 10.0931 10.0931 0 22.5 0C34.9069 0 45 10.0931 45 22.5ZM43.125 22.5C43.125 11.1281 33.8719 1.875 22.5 1.875C11.1281 1.875 1.875 11.1281 1.875 22.5C1.875 33.8719 11.1281 43.125 22.5 43.125C33.8719 43.125 43.125 33.8719 43.125 22.5Z" fill="white"/>
</g>
<defs>
<clipPath id="clip0_469_4399">
<rect width="45" height="45" fill="white"/>
</clipPath>
</defs>
</svg>
