<svg width="37" height="37" viewBox="0 0 37 37" fill="none" xmlns="http://www.w3.org/2000/svg">
<path d="M35.3913 16.8911H1.60867C0.720218 16.8911 0 17.6113 0 18.4998C0 19.3882 0.720218 20.1085 1.60867 20.1085H35.3913C36.2797 20.1085 36.9999 19.3882 36.9999 18.4998C37 17.6113 36.2797 16.8911 35.3913 16.8911Z" fill="white"/>
<path d="M1.60867 8.84771H35.3913C36.2797 8.84771 36.9999 8.12749 36.9999 7.23904C36.9999 6.35059 36.2797 5.63037 35.3913 5.63037H1.60867C0.720218 5.63037 0 6.35059 0 7.23904C0 8.12749 0.720218 8.84771 1.60867 8.84771Z" fill="white"/>
<path d="M35.3913 28.1521H1.60867C0.720218 28.1521 0 28.8724 0 29.7608C0 30.6493 0.720218 31.3695 1.60867 31.3695H35.3913C36.2797 31.3695 36.9999 30.6493 36.9999 29.7608C37 28.8724 36.2797 28.1521 35.3913 28.1521Z" fill="white"/>
</svg>
