<svg width="9" height="5" viewBox="0 0 9 5" fill="none" xmlns="http://www.w3.org/2000/svg">
<path d="M0.683144 0H8.31686C8.45198 2.78312e-05 8.58405 0.0386999 8.69639 0.111128C8.80873 0.183555 8.89629 0.286487 8.948 0.40691C8.9997 0.527332 9.01323 0.659838 8.98688 0.787678C8.96053 0.915517 8.89547 1.03295 8.79994 1.12513L4.98309 4.80702C4.85495 4.93058 4.68118 5 4.5 5C4.31882 5 4.14505 4.93058 4.01691 4.80702L0.200058 1.12513C0.104528 1.03295 0.0394743 0.915517 0.0131215 0.787678C-0.0132313 0.659838 0.000300048 0.527332 0.0520046 0.40691C0.103709 0.286487 0.191266 0.183555 0.303605 0.111128C0.415945 0.0386999 0.548023 2.78312e-05 0.683144 0Z" fill="#C7C7C7"/>
<path d="M0.683144 0H8.31686C8.45198 2.78312e-05 8.58405 0.0386999 8.69639 0.111128C8.80873 0.183555 8.89629 0.286487 8.948 0.40691C8.9997 0.527332 9.01323 0.659838 8.98688 0.787678C8.96053 0.915517 8.89547 1.03295 8.79994 1.12513L4.98309 4.80702C4.85495 4.93058 4.68118 5 4.5 5C4.31882 5 4.14505 4.93058 4.01691 4.80702L0.200058 1.12513C0.104528 1.03295 0.0394743 0.915517 0.0131215 0.787678C-0.0132313 0.659838 0.000300048 0.527332 0.0520046 0.40691C0.103709 0.286487 0.191266 0.183555 0.303605 0.111128C0.415945 0.0386999 0.548023 2.78312e-05 0.683144 0Z" fill="#C7C7C7"/>
</svg>
